<?xml version="1.0" standalone="no"?>
<!DOCTYPE svg PUBLIC "-//W3C//DTD SVG 20010904//EN"
 "http://www.w3.org/TR/2001/REC-SVG-20010904/DTD/svg10.dtd">
<svg version="1.0" xmlns="http://www.w3.org/2000/svg"
 width="282.000000pt" height="257.000000pt" viewBox="0 0 282.000000 257.000000"
 preserveAspectRatio="xMidYMid meet">

<g transform="translate(0.000000,257.000000) scale(0.100000,-0.100000)"
fill="#000000" stroke="none">
<path d="M680 2081 c-57 -12 -98 -39 -128 -83 l-27 -42 0 -371 0 -371 28 -42
c15 -23 46 -52 70 -64 40 -22 52 -23 272 -23 220 0 232 1 272 23 24 12 55 41
70 64 l28 42 0 371 0 371 -28 42 c-15 23 -46 52 -70 64 -39 21 -56 22 -247 25
-113 1 -221 -2 -240 -6z m444 -137 c14 -13 16 -60 16 -364 0 -335 -1 -350 -19
-360 -12 -6 -104 -10 -230 -10 l-210 0 -20 26 c-20 26 -21 38 -21 346 0 316 3
350 34 370 6 4 106 8 223 8 179 0 214 -2 227 -16z"/>
<path d="M1680 2081 c-57 -12 -98 -39 -128 -83 -26 -40 -27 -46 -30 -202 -4
-176 3 -216 45 -267 53 -62 83 -69 328 -69 245 0 275 7 328 69 41 49 49 98 45
272 -3 150 -4 157 -31 197 -15 23 -46 52 -70 64 -39 21 -56 22 -247 25 -113 1
-221 -2 -240 -6z m444 -137 c13 -13 16 -43 16 -174 0 -207 20 -192 -254 -188
-181 3 -207 5 -223 21 -15 15 -19 39 -21 148 -4 142 0 169 24 193 23 24 435
24 458 0z"/>
<path d="M1677 1330 c-61 -16 -95 -38 -125 -82 l-27 -42 0 -370 0 -371 28 -43
c49 -76 74 -82 342 -82 267 0 293 7 342 81 l28 43 0 371 0 371 -28 43 c-50 75
-87 85 -322 88 -110 1 -217 -2 -238 -7z m447 -136 c14 -13 16 -60 16 -364 0
-335 -1 -350 -19 -360 -22 -11 -430 -14 -447 -2 -31 20 -34 54 -34 367 0 313
3 347 34 367 6 4 106 8 223 8 179 0 214 -2 227 -16z"/>
<path d="M646 945 c-51 -18 -92 -59 -112 -110 -13 -34 -15 -74 -12 -206 3
-160 4 -165 31 -207 49 -76 74 -82 342 -82 267 0 293 7 342 81 27 41 28 47 31
199 2 100 -1 173 -8 200 -15 56 -72 114 -125 129 -60 16 -440 14 -489 -4z
m482 -127 c8 -8 12 -61 12 -175 0 -150 -1 -163 -19 -173 -12 -6 -104 -10 -230
-10 -226 0 -234 2 -247 55 -11 45 0 281 15 298 12 15 41 17 235 17 159 0 225
-3 234 -12z"/>
</g>
</svg>
